<svg aria-hidden="true" style="position: absolute; width: 0; height: 0; overflow: hidden;" version="1.1" xmlns="http://www.w3.org/2000/svg" xmlns:xlink="http://www.w3.org/1999/xlink">
<defs>
<symbol id="icon-price-tag-svgrepo-com" viewBox="0 0 32 32">
<path d="M31.414 14.586l-14-14c-0.375-0.375-0.883-0.586-1.414-0.586h-14c-1.105 0-2 0.894-2 2v14c0 0.531 0.211 1.039 0.586 1.414l14 14c0.39 0.39 0.902 0.586 1.414 0.586s1.023-0.195 1.414-0.586l14-14c0.782-0.781 0.782-2.047 0-2.828zM10 14.002c-2.209 0-4-1.791-4-4s1.791-4 4-4 4 1.791 4 4-1.791 4-4 4z"></path>
</symbol>
<symbol id="icon-home" viewBox="0 0 32 32">
<path d="M32 18.451l-16-12.42-16 12.42v-5.064l16-12.42 16 12.42zM28 18v12h-8v-8h-8v8h-8v-12l12-9z"></path>
</symbol>
<symbol id="icon-pencil" viewBox="0 0 32 32">
<path d="M27 0c2.761 0 5 2.239 5 5 0 1.126-0.372 2.164-1 3l-2 2-7-7 2-2c0.836-0.628 1.874-1 3-1zM2 23l-2 9 9-2 18.5-18.5-7-7-18.5 18.5zM22.362 11.362l-14 14-1.724-1.724 14-14 1.724 1.724z"></path>
</symbol>
</defs>
</svg>
